# xmcd
#
# Track frame offsets:
#	150
#	17795
#	36565
#	51302
#	63220
#	74535
#	94262
#	106442
#	121302
#	140527
#
# Disc length: 2051 seconds
#
# Revision: 1
# Processed by: cddbd v1.4PL0 Copyright (c) Steve Scherf et al.
# Submitted via: audiograbber 1.82.01
#
DISCID=9508010a
DTITLE=Dirk Darmstaedter and Bernd Begemann - This Road Doesn't Lead To My House 
DTITLE=Anymore
DYEAR=2003
DGENRE=Country
TTITLE0=I Got A Name
TTITLE1=We'll Know When
TTITLE2=This Road Doesn't Lead To My House Anymore
TTITLE3=Why Don't You Love Me
TTITLE4=Lack Of A Lover
TTITLE5=Fade Away
TTITLE6=Thank God I'm A Country Boy
TTITLE7=Till I Get It Right
TTITLE8=When I Wasn't Making Lots Of Money
TTITLE9=True Love Is Quiet
EXTD=
EXTT0=
EXTT1=
EXTT2=
EXTT3=
EXTT4=
EXTT5=
EXTT6=
EXTT7=
EXTT8=
EXTT9=
PLAYORDER=
